# xmcd CD database file
# Copyright (C) 1993-1998 Ti Kan
#
# Track frame offsets:
#  150
#  21838
#  38358
#  52930
#  72778
#  93203
#  114640
#  140053
#  162025
#
# Disc length: 2428 seconds
#
# Revision: 1
# Processed by: cddbd v1.4b41PL1 Copyright (c) Steve Scherf et al.
# Submitted via: CDWizzard Release:4.35
#
DISCID=69097a09
DTITLE=Philip Bailey - Triumph
DYEAR=1900
DGENRE=
TTITLE0=All Soldiers
TTITLE1=Thank You
TTITLE2=The Love Of God
TTITLE3=Marvelous
TTITLE4=The Same Way (You've Always Been)
TTITLE5=The Other Side
TTITLE6=Bring It To Jesus
TTITLE7=Triumph
TTITLE8=Come Before His Presence
EXTD=
EXTT0=
EXTT1=
EXTT2=
EXTT3=
EXTT4=
EXTT5=
EXTT6=
EXTT7=
EXTT8=
PLAYORDER=
